<svg width="1600" height="1200" fill="none" xmlns="http://www.w3.org/2000/svg"><path opacity=".5" d="M957.993 970c-27.5 106-32.345 292.03 121.497 336.5M99.496 447c-63.98 7.41-188.435 56.441-174.402 193.285C-60.874 777.129 13.298 831.685 101 872m45 133c20.75 89.66 172.114 182.54 352 .55M1501 824.5c207.5-48 347.6-150.1 220-510.5m-328.5 691c-15 62.5-95.9 395.6-215.5 378M355 300c163.708-201.592 399.548-519.735 748.29-426.181 34.92 92.315 143.89 271.758 300.45 251.011 195.69-25.933 227.68 139.451 99.73 174.681" stroke="#fff"/></svg>