<svg width="1600" height="1200" viewBox="0 0 1600 1200" fill="none" xmlns="http://www.w3.org/2000/svg">
<path opacity="0.5" d="M957.993 970C930.493 1076 925.648 1262.03 1079.49 1306.5" stroke="white"/>
<path opacity="0.5" d="M99.4965 447C35.5154 454.41 -88.9386 503.441 -74.9062 640.285C-60.8738 777.129 13.2975 831.685 101 872" stroke="white"/>
<path opacity="0.5" d="M146 1005C166.75 1094.66 318.114 1187.54 498 1005.55" stroke="white"/>
<path opacity="0.5" d="M1501 824.5C1708.5 776.5 1848.6 674.4 1721 314" stroke="white"/>
<path opacity="0.5" d="M1392.5 1005C1377.5 1067.5 1296.6 1400.6 1177 1383" stroke="white"/>
<path opacity="0.5" d="M355 300C518.708 98.4081 754.548 -219.735 1103.29 -126.181C1138.21 -33.8662 1247.18 145.577 1403.74 124.83C1599.43 98.8974 1631.42 264.281 1503.47 299.511" stroke="white"/>
</svg>
